<svg width="40" height="40" viewBox="0 0 40 40" fill="none" xmlns="http://www.w3.org/2000/svg">
<g clip-path="url(#clip0)">
<path d="M20 40C31.0457 40 40 31.0457 40 20C40 8.9543 31.0457 0 20 0C8.9543 0 0 8.9543 0 20C0 31.0457 8.9543 40 20 40Z" fill="#FFD93B"/>
<path d="M39.9999 20.0003C39.9999 31.0503 31.0437 40.0003 19.9999 40.0003C13.7124 40.0003 8.0999 37.1003 4.43115 32.5565C7.8624 35.3315 12.2312 36.9878 16.9874 36.9878C28.0312 36.9878 36.9874 28.0378 36.9874 16.9878C36.9874 12.2315 35.3312 7.86277 32.5562 4.43152C37.0937 8.10027 39.9999 13.7128 39.9999 20.0003Z" fill="#F4C534"/>
<path d="M13.3484 31.5807C12.7746 31.197 12.6209 30.4207 13.0046 29.847C15.8996 25.522 20.3671 25.522 26.5509 25.522C27.2409 25.522 27.8009 26.082 27.8009 26.772C27.8009 27.462 27.2409 28.022 26.5509 28.022C20.2596 28.022 17.1434 28.1582 15.0821 31.2382C14.6959 31.8132 13.9196 31.962 13.3484 31.5807Z" fill="#3E4347"/>
<path d="M12.75 19.9035C14.5214 19.9035 15.9575 18.4675 15.9575 16.696C15.9575 14.9246 14.5214 13.4885 12.75 13.4885C10.9785 13.4885 9.54248 14.9246 9.54248 16.696C9.54248 18.4675 10.9785 19.9035 12.75 19.9035Z" fill="#3E4347"/>
<path d="M14.5637 16.1392C14.3412 16.3492 13.9212 16.2729 13.6525 15.9742C13.375 15.6767 13.3275 15.2541 13.5612 15.0504C13.7925 14.8379 14.2025 14.9079 14.48 15.2066C14.7587 15.5129 14.795 15.9279 14.5637 16.1392Z" fill="#5A5F63"/>
<path d="M27.2554 19.9035C29.0268 19.9035 30.4629 18.4675 30.4629 16.696C30.4629 14.9246 29.0268 13.4885 27.2554 13.4885C25.4839 13.4885 24.0479 14.9246 24.0479 16.696C24.0479 18.4675 25.4839 19.9035 27.2554 19.9035Z" fill="#3E4347"/>
<path d="M29.0686 16.1392C28.8461 16.3492 28.4261 16.2729 28.1574 15.9742C27.8799 15.6767 27.8324 15.2541 28.0661 15.0504C28.2974 14.8379 28.7074 14.9079 28.9849 15.2066C29.2636 15.5129 29.2999 15.9279 29.0686 16.1392Z" fill="#5A5F63"/>
</g>
<defs>
<clipPath id="clip0">
<rect width="40" height="40" fill="white"/>
</clipPath>
</defs>
</svg>
