<svg width="40" height="40" viewBox="0 0 40 40" fill="none" xmlns="http://www.w3.org/2000/svg">
<g clip-path="url(#clip0)">
<path d="M20 40C31.0457 40 40 31.0457 40 20C40 8.9543 31.0457 0 20 0C8.9543 0 0 8.9543 0 20C0 31.0457 8.9543 40 20 40Z" fill="#FFD93B"/>
<path d="M39.9999 20.0003C39.9999 31.0503 31.0437 40.0003 19.9999 40.0003C13.7124 40.0003 8.0999 37.1003 4.43115 32.5565C7.8624 35.3315 12.2312 36.9878 16.9874 36.9878C28.0312 36.9878 36.9874 28.0378 36.9874 16.9878C36.9874 12.2315 35.3312 7.86277 32.5562 4.43152C37.0937 8.10027 39.9999 13.7128 39.9999 20.0003Z" fill="#F4C534"/>
<path d="M25.971 30.0629C25.971 30.6466 25.5048 31.1041 24.9298 31.1041H15.071C14.496 31.1041 14.0298 30.6454 14.0298 30.0629C14.0298 29.4879 14.496 29.0216 15.071 29.0216H24.9298C25.5035 29.0216 25.971 29.4879 25.971 30.0629Z" fill="#3E4347"/>
<path d="M8.73495 20.4436C9.2237 20.1561 10.67 21.7061 12.9412 21.7911C15.2925 21.8786 16.6587 20.1561 17.1475 20.4436C17.7562 20.6523 16.9262 24.6274 12.9412 24.6424C8.95745 24.6274 8.1262 20.6523 8.73495 20.4436Z" fill="#3E4347"/>
<path d="M7.79753 18.6962C7.34378 18.6237 7.03378 18.1962 7.10753 17.7412C7.18128 17.2875 7.60128 16.9762 8.06253 17.0512C12.7475 17.8037 14.1713 14.4575 14.185 14.4237C14.3575 13.9975 14.8425 13.7925 15.2713 13.9663C15.6975 14.14 15.9025 14.6262 15.7288 15.0525C14.7888 17.355 11.8363 19.345 7.79753 18.6962Z" fill="#E9B02C"/>
<path d="M31.2652 20.4436C30.7765 20.1561 29.3302 21.7061 27.059 21.7911C24.7077 21.8786 23.3415 20.1561 22.8527 20.4436C22.244 20.6523 23.074 24.6274 27.059 24.6424C31.0427 24.6274 31.874 20.6523 31.2652 20.4436Z" fill="#3E4347"/>
<path d="M24.2713 15.0509C24.0976 14.6246 24.3026 14.1384 24.7288 13.9646C25.1538 13.7909 25.6388 13.9946 25.8138 14.4184C25.8763 14.5684 27.3076 17.7946 31.9376 17.0509C32.3963 16.9759 32.8201 17.2871 32.8926 17.7409C32.9651 18.1959 32.6563 18.6234 32.2026 18.6959C28.1926 19.3409 25.2188 17.3746 24.2713 15.0509Z" fill="#E9B02C"/>
</g>
<defs>
<clipPath id="clip0">
<rect width="40" height="40" fill="white"/>
</clipPath>
</defs>
</svg>
