<svg width="40" height="40" viewBox="0 0 40 40" fill="none" xmlns="http://www.w3.org/2000/svg">
<path d="M20 40C31.0457 40 40 31.0457 40 20C40 8.9543 31.0457 0 20 0C8.9543 0 0 8.9543 0 20C0 31.0457 8.9543 40 20 40Z" fill="#FFD93B"/>
<path d="M39.9999 19.9998C39.9999 31.0498 31.0437 39.9998 19.9999 39.9998C13.7124 39.9998 8.0999 37.0998 4.43115 32.5561C7.8624 35.3311 12.2312 36.9873 16.9874 36.9873C28.0312 36.9873 36.9874 28.0373 36.9874 16.9873C36.9874 12.2311 35.3312 7.86234 32.5562 4.43109C37.0937 8.09984 39.9999 13.7123 39.9999 19.9998Z" fill="#F4C534"/>
<path d="M18.1452 15.7264C18.1452 19.5689 12.3402 23.0839 12.3402 23.0839C12.3402 23.0839 6.53516 19.5689 6.53516 15.7264C6.53516 14.0851 7.86141 12.7601 9.50141 12.7601C10.8439 12.7601 11.9702 13.6464 12.3439 14.8564C12.7089 13.6464 13.8352 12.7601 15.1777 12.7601C16.8102 12.7601 18.1452 14.0864 18.1452 15.7264Z" fill="#E24B4B"/>
<path d="M7.51113 13.5402C6.91488 14.0827 6.53613 14.8564 6.53613 15.7277C6.53613 19.5702 12.3411 23.0852 12.3411 23.0852C6.26238 17.9514 7.46613 13.6889 7.51113 13.5402Z" fill="#D03F3F"/>
<path d="M16.8127 15.6274C16.5302 15.8562 16.0502 15.7037 15.7352 15.3012C15.4089 14.8987 15.3752 14.4087 15.6377 14.2012C15.9202 13.9837 16.4002 14.1462 16.7264 14.5499C17.0414 14.9512 17.0852 15.4412 16.8127 15.6274Z" fill="white"/>
<path d="M33.465 15.7264C33.465 19.5689 27.66 23.0839 27.66 23.0839C27.66 23.0839 21.855 19.5689 21.855 15.7264C21.855 14.0851 23.1812 12.7601 24.8212 12.7601C26.1637 12.7601 27.29 13.6464 27.6637 14.8564C28.0287 13.6464 29.155 12.7601 30.4975 12.7601C32.13 12.7601 33.465 14.0864 33.465 15.7264Z" fill="#E24B4B"/>
<path d="M22.8314 13.5402C22.2352 14.0827 21.8564 14.8564 21.8564 15.7277C21.8564 19.5702 27.6614 23.0852 27.6614 23.0852C21.5827 17.9514 22.7864 13.6889 22.8314 13.5402Z" fill="#D03F3F"/>
<path d="M32.1325 15.6274C31.85 15.8562 31.37 15.7037 31.055 15.3012C30.7287 14.8987 30.695 14.4087 30.9575 14.2012C31.24 13.9837 31.72 14.1462 32.0462 14.5499C32.3612 14.9512 32.405 15.4412 32.1325 15.6274Z" fill="white"/>
<path d="M29.8227 29.2271C27.4602 32.0271 23.9389 34.2596 20.0014 34.2596C16.0639 34.2596 12.5477 32.0271 10.1727 29.2396C9.34768 28.2646 10.1852 26.7771 11.4602 27.0021C17.0852 27.9896 22.7727 28.0021 28.5477 26.9896C29.8102 26.7771 30.6602 28.2521 29.8227 29.2271Z" fill="#3E4347"/>
<path d="M20.0013 34.26C22.01 34.26 23.9088 33.6738 25.6025 32.7325C24.8925 30.0988 22.4188 29.3488 20.7088 30.2575C18.3925 31.4938 15.8013 29.8938 14.8013 32.9375C16.3925 33.7525 18.1463 34.26 20.0013 34.26Z" fill="#E24B4B"/>
</svg>
