<svg width="40" height="40" viewBox="0 0 40 40" fill="none" xmlns="http://www.w3.org/2000/svg">
<g clip-path="url(#clip0)">
<path d="M20 40C31.0457 40 40 31.0457 40 20C40 8.9543 31.0457 0 20 0C8.9543 0 0 8.9543 0 20C0 31.0457 8.9543 40 20 40Z" fill="#FFD93B"/>
<path d="M39.9999 20.0003C39.9999 31.0503 31.0437 40.0003 19.9999 40.0003C13.7124 40.0003 8.0999 37.1003 4.43115 32.5566C7.8624 35.3316 12.2312 36.9878 16.9874 36.9878C28.0312 36.9878 36.9874 28.0378 36.9874 16.9878C36.9874 12.2316 35.3312 7.86283 32.5562 4.43158C37.0937 8.10033 39.9999 13.7128 39.9999 20.0003Z" fill="#F4C534"/>
<path d="M27.3575 20.764C29.091 20.764 30.4963 19.3587 30.4963 17.6252C30.4963 15.8917 29.091 14.4865 27.3575 14.4865C25.624 14.4865 24.2188 15.8917 24.2188 17.6252C24.2188 19.3587 25.624 20.764 27.3575 20.764Z" fill="#3E4347"/>
<path d="M28.4974 15.6719C28.0178 15.4592 27.5174 15.5385 27.3797 15.849C27.242 16.1594 27.5192 16.5836 27.9988 16.7963C28.4784 17.009 28.9788 16.9297 29.1165 16.6192C29.2542 16.3087 28.977 15.8846 28.4974 15.6719Z" fill="#5A5F63"/>
<path d="M12.6422 20.764C14.3757 20.764 15.7809 19.3587 15.7809 17.6252C15.7809 15.8917 14.3757 14.4865 12.6422 14.4865C10.9087 14.4865 9.50342 15.8917 9.50342 17.6252C9.50342 19.3587 10.9087 20.764 12.6422 20.764Z" fill="#3E4347"/>
<path d="M13.7811 15.6718C13.3015 15.4591 12.8011 15.5384 12.6634 15.8488C12.5257 16.1593 12.8029 16.5834 13.2825 16.7961C13.7621 17.0088 14.2625 16.9296 14.4002 16.6191C14.5379 16.3086 14.2607 15.8845 13.7811 15.6718Z" fill="#5A5F63"/>
<path d="M11.8073 27.8952C11.4298 27.5402 11.4123 26.9464 11.7673 26.5702C12.1223 26.1939 12.7148 26.1752 13.0923 26.5302C16.9661 30.1764 23.0336 30.1764 26.9073 26.5302C27.2848 26.1752 27.8773 26.1939 28.2323 26.5702C28.5873 26.9477 28.5698 27.5402 28.1923 27.8952C23.5986 32.2202 16.4011 32.2202 11.8073 27.8952Z" fill="#3E4347"/>
</g>
<defs>
<clipPath id="clip0">
<rect width="40" height="40" fill="white"/>
</clipPath>
</defs>
</svg>
