<svg width="40" height="40" viewBox="0 0 40 40" fill="none" xmlns="http://www.w3.org/2000/svg">
<g clip-path="url(#clip0)">
<path d="M20 40C31.0457 40 40 31.0457 40 20C40 8.9543 31.0457 0 20 0C8.9543 0 0 8.9543 0 20C0 31.0457 8.9543 40 20 40Z" fill="#FFD93B"/>
<path d="M39.9999 20.0003C39.9999 31.0503 31.0437 40.0003 19.9999 40.0003C13.7124 40.0003 8.0999 37.1003 4.43115 32.5565C7.8624 35.3315 12.2312 36.9878 16.9874 36.9878C28.0312 36.9878 36.9874 28.0378 36.9874 16.9878C36.9874 12.2315 35.3312 7.86277 32.5562 4.43152C37.0937 8.10027 39.9999 13.7128 39.9999 20.0003Z" fill="#F4C534"/>
<path d="M28.9501 26.9057C28.9501 27.507 28.4638 27.9932 27.8626 27.9932H12.1363C11.5413 27.9932 11.0488 27.507 11.0488 26.9057C11.0488 26.3045 11.5413 25.8182 12.1363 25.8182H27.8626C28.4651 25.8195 28.9501 26.3045 28.9501 26.9057Z" fill="#3E4347"/>
<path d="M13.6338 19.1584C15.2796 19.1584 16.6138 17.8242 16.6138 16.1784C16.6138 14.5326 15.2796 13.1984 13.6338 13.1984C11.988 13.1984 10.6538 14.5326 10.6538 16.1784C10.6538 17.8242 11.988 19.1584 13.6338 19.1584Z" fill="#3E4347"/>
<path d="M15.3022 14.659C15.0442 14.3122 14.6532 14.1665 14.4289 14.3334C14.2046 14.5003 14.2319 14.9167 14.4899 15.2634C14.7479 15.6102 15.1389 15.7559 15.3632 15.589C15.5875 15.4221 15.5602 15.0057 15.3022 14.659Z" fill="#5A5F63"/>
<path d="M26.3623 19.1584C28.0081 19.1584 29.3423 17.8242 29.3423 16.1784C29.3423 14.5326 28.0081 13.1984 26.3623 13.1984C24.7165 13.1984 23.3823 14.5326 23.3823 16.1784C23.3823 17.8242 24.7165 19.1584 26.3623 19.1584Z" fill="#3E4347"/>
<path d="M28.0301 14.662C27.7721 14.3153 27.3812 14.1696 27.1569 14.3365C26.9326 14.5034 26.9599 14.9198 27.2179 15.2664C27.4759 15.6131 27.8669 15.7589 28.0912 15.5919C28.3155 15.425 28.2881 15.0087 28.0301 14.662Z" fill="#5A5F63"/>
</g>
<defs>
<clipPath id="clip0">
<rect width="40" height="40" fill="white"/>
</clipPath>
</defs>
</svg>
